<svg xmlns="http://www.w3.org/2000/svg" xmlns:xlink="http://www.w3.org/1999/xlink" contentStyleType="text/css" data-diagram-type="DESCRIPTION" height="1837px" preserveAspectRatio="none" style="width:2455px;height:1837px;background:#FFFFFF;" version="1.1" viewBox="0 0 2455 1837" width="2455px" zoomAndPan="magnify"><?plantuml 1.2026.3beta6?><defs/><g><g class="title" data-source-line="2"><text fill="#000000" font-family="Verdana" font-size="22" font-weight="700" lengthAdjust="spacing" textLength="610.6504" x="921.4332" y="35.4209">ChatHealthy.ai &#8212; Deployed Security Architecture</text><text fill="#000000" font-family="Verdana" font-size="22" font-weight="700" lengthAdjust="spacing" textLength="179.7705" x="1136.8732" y="61.0303">dev / qa / prod</text><text fill="#000000" font-family="Verdana" font-size="22" font-weight="700" lengthAdjust="spacing" textLength="140.7227" x="1156.3971" y="86.6396">2026-04-06</text></g><!--cluster env_cf--><g class="cluster" data-qualified-name="env_cf" data-source-line="18" id="ent0003"><path d="M161.5,264.4181 L232.2852,264.4181 A3.75,3.75 0 0 1 234.7852,266.9181 L241.7852,284.3869 L451.5,284.3869 A2.5,2.5 0 0 1 454,286.8869 L454,549.0481 A2.5,2.5 0 0 1 451.5,551.5481 L161.5,551.5481 A2.5,2.5 0 0 1 159,549.0481 L159,266.9181 A2.5,2.5 0 0 1 161.5,264.4181" fill="#F5FFF5" style="stroke:#000000;stroke-width:2;"/><line style="stroke:#000000;stroke-width:2;" x1="159" x2="241.7852" y1="284.3869" y2="284.3869"/><text fill="#000000" font-family="Verdana" font-size="12" font-weight="700" lengthAdjust="spacing" textLength="69.7852" x="163" y="277.5568">Cloudflare</text><text fill="#000000" font-family="Verdana" font-size="12" font-style="italic" lengthAdjust="spacing" textLength="63.8789" x="278.5605" y="297.5255">&#171;physical&#187;</text></g><!--cluster env_hf--><g class="cluster" data-qualified-name="env_hf" data-source-line="24" id="ent0007"><path d="M13.5,600.5481 L103.0586,600.5481 A3.75,3.75 0 0 1 105.5586,603.0481 L112.5586,620.5169 L310.5,620.5169 A2.5,2.5 0 0 1 313,623.0169 L313,1218.0981 A2.5,2.5 0 0 1 310.5,1220.5981 L13.5,1220.5981 A2.5,2.5 0 0 1 11,1218.0981 L11,603.0481 A2.5,2.5 0 0 1 13.5,600.5481" fill="#F0FFF0" style="stroke:#000000;stroke-width:2;"/><line style="stroke:#000000;stroke-width:2;" x1="11" x2="112.5586" y1="620.5169" y2="620.5169"/><text fill="#000000" font-family="Verdana" font-size="12" font-weight="700" lengthAdjust="spacing" textLength="88.5586" x="15" y="613.6868">HuggingFace</text><text fill="#000000" font-family="Verdana" font-size="12" font-style="italic" lengthAdjust="spacing" textLength="63.8789" x="134.0605" y="633.6555">&#171;physical&#187;</text></g><!--cluster hf_fc--><g class="cluster" data-qualified-name="env_hf.hf_fc" data-source-line="25" id="ent0008"><path d="M163.5,654.5481 L276.8066,654.5481 A3.75,3.75 0 0 1 279.3066,657.0481 L286.3066,674.5169 L286.5,674.5169 A2.5,2.5 0 0 1 289,677.0169 L289,754.9681 A2.5,2.5 0 0 1 286.5,757.4681 L163.5,757.4681 A2.5,2.5 0 0 1 161,754.9681 L161,657.0481 A2.5,2.5 0 0 1 163.5,654.5481" fill="#FFFFFF" style="stroke:#000000;stroke-width:2;"/><line style="stroke:#000000;stroke-width:2;" x1="161" x2="286.3066" y1="674.5169" y2="674.5169"/><text fill="#000000" font-family="Verdana" font-size="12" font-weight="700" lengthAdjust="spacing" textLength="112.3066" x="165" y="667.6868">FindCare Spaces</text></g><!--cluster hf_ec--><g class="cluster" data-qualified-name="env_hf.hf_ec" data-source-line="28" id="ent0010"><path d="M37.5,841.2881 L180.1094,841.2881 A3.75,3.75 0 0 1 182.6094,843.7881 L189.6094,861.2569 L189.5,861.2569 A2.5,2.5 0 0 1 192,863.7569 L192,941.7081 A2.5,2.5 0 0 1 189.5,944.2081 L37.5,944.2081 A2.5,2.5 0 0 1 35,941.7081 L35,843.7881 A2.5,2.5 0 0 1 37.5,841.2881" fill="#FFFFFF" style="stroke:#000000;stroke-width:2;"/><line style="stroke:#000000;stroke-width:2;" x1="35" x2="189.6094" y1="861.2569" y2="861.2569"/><text fill="#000000" font-family="Verdana" font-size="12" font-weight="700" lengthAdjust="spacing" textLength="141.6094" x="39" y="854.4268">EvaluateCare Spaces</text></g><!--cluster hf_ss--><g class="cluster" data-qualified-name="env_hf.hf_ss" data-source-line="31" id="ent0012"><path d="M40.5,1058.7481 L202.5391,1058.7481 A3.75,3.75 0 0 1 205.0391,1061.2481 L212.0391,1078.7169 L212.5,1078.7169 A2.5,2.5 0 0 1 215,1081.2169 L215,1194.0981 A2.5,2.5 0 0 1 212.5,1196.5981 L40.5,1196.5981 A2.5,2.5 0 0 1 38,1194.0981 L38,1061.2481 A2.5,2.5 0 0 1 40.5,1058.7481" fill="#FFFFFF" style="stroke:#000000;stroke-width:2;"/><line style="stroke:#000000;stroke-width:2;" x1="38" x2="212.0391" y1="1078.7169" y2="1078.7169"/><text fill="#000000" font-family="Verdana" font-size="12" font-weight="700" lengthAdjust="spacing" textLength="161.0391" x="42" y="1071.8868">Shared Services Spaces</text></g><!--cluster env_sec--><g class="cluster" data-qualified-name="env_sec" data-source-line="36" id="ent0014"><path d="M1053.5,1020.0281 L1253.4316,1020.0281 A3.75,3.75 0 0 1 1255.9316,1022.5281 L1262.9316,1039.9969 L1956.5,1039.9969 A2.5,2.5 0 0 1 1959,1042.4969 L1959,1452.1381 A2.5,2.5 0 0 1 1956.5,1454.6381 L1053.5,1454.6381 A2.5,2.5 0 0 1 1051,1452.1381 L1051,1022.5281 A2.5,2.5 0 0 1 1053.5,1020.0281" fill="#FFE8E8" style="stroke:#000000;stroke-width:2;"/><line style="stroke:#000000;stroke-width:2;" x1="1051" x2="1262.9316" y1="1039.9969" y2="1039.9969"/><text fill="#000000" font-family="Verdana" font-size="12" font-weight="700" lengthAdjust="spacing" textLength="198.9316" x="1055" y="1033.1668">Azure &#8212; ChatHealthySecurity</text><text fill="#000000" font-family="Verdana" font-size="12" font-style="italic" lengthAdjust="spacing" textLength="63.8789" x="1477.0605" y="1053.1355">&#171;physical&#187;</text></g><!--cluster vnet--><g class="cluster" data-qualified-name="env_sec.vnet" data-source-line="39" id="ent0016"><path d="M1267.5,1082.0281 L1344.7539,1082.0281 A3.75,3.75 0 0 1 1347.2539,1084.5281 L1354.2539,1101.9969 L1916.5,1101.9969 A2.5,2.5 0 0 1 1919,1104.4969 L1919,1416.8581 A2.5,2.5 0 0 1 1916.5,1419.3581 L1267.5,1419.3581 A2.5,2.5 0 0 1 1265,1416.8581 L1265,1084.5281 A2.5,2.5 0 0 1 1267.5,1082.0281" fill="#FFFFFF" style="stroke:#000000;stroke-width:2;"/><line style="stroke:#000000;stroke-width:2;" x1="1265" x2="1354.2539" y1="1101.9969" y2="1101.9969"/><text fill="#000000" font-family="Verdana" font-size="12" font-weight="700" lengthAdjust="spacing" textLength="76.2539" x="1269" y="1095.1668">Azure VNet</text></g><!--cluster env_pipe--><g class="cluster" data-qualified-name="env_pipe" data-source-line="49" id="ent0023"><path d="M769.5,821.4681 L1006.9844,821.4681 A3.75,3.75 0 0 1 1009.4844,823.9681 L1016.4844,841.4369 L1016.5,841.4369 A2.5,2.5 0 0 1 1019,843.9369 L1019,1170.8181 A2.5,2.5 0 0 1 1016.5,1173.3181 L769.5,1173.3181 A2.5,2.5 0 0 1 767,1170.8181 L767,823.9681 A2.5,2.5 0 0 1 769.5,821.4681" fill="#FFF0F0" style="stroke:#000000;stroke-width:2;"/><line style="stroke:#000000;stroke-width:2;" x1="767" x2="1016.4844" y1="841.4369" y2="841.4369"/><text fill="#000000" font-family="Verdana" font-size="12" font-weight="700" lengthAdjust="spacing" textLength="236.4844" x="771" y="834.6068">Azure &#8212; ChatHealthyDataPipelines</text><text fill="#000000" font-family="Verdana" font-size="12" font-style="italic" lengthAdjust="spacing" textLength="63.8789" x="865.0605" y="854.5755">&#171;physical&#187;</text></g><!--cluster env_biz--><g class="cluster" data-qualified-name="env_biz" data-source-line="54" id="ent0026"><path d="M1406.5,827.2881 L1647.4414,827.2881 A3.75,3.75 0 0 1 1649.9414,829.7881 L1656.9414,847.2569 L1656.5,847.2569 A2.5,2.5 0 0 1 1659,849.7569 L1659,941.7081 A2.5,2.5 0 0 1 1656.5,944.2081 L1406.5,944.2081 A2.5,2.5 0 0 1 1404,941.7081 L1404,829.7881 A2.5,2.5 0 0 1 1406.5,827.2881" fill="#FFF0F5" style="stroke:#000000;stroke-width:2;"/><line style="stroke:#000000;stroke-width:2;" x1="1404" x2="1656.9414" y1="847.2569" y2="847.2569"/><text fill="#000000" font-family="Verdana" font-size="12" font-weight="700" lengthAdjust="spacing" textLength="239.9414" x="1408" y="840.4268">Azure &#8212; ChatHealthyBIZOperations</text><text fill="#000000" font-family="Verdana" font-size="12" font-style="italic" lengthAdjust="spacing" textLength="63.8789" x="1503.5605" y="860.3955">&#171;physical&#187;</text></g><!--cluster env_mongo--><g class="cluster" data-qualified-name="env_mongo" data-source-line="58" id="ent0028"><path d="M1283.5,1526.6381 L1387.7246,1526.6381 A3.75,3.75 0 0 1 1390.2246,1529.1381 L1397.2246,1546.6069 L1454.5,1546.6069 A2.5,2.5 0 0 1 1457,1549.1069 L1457,1819.5481 A2.5,2.5 0 0 1 1454.5,1822.0481 L1283.5,1822.0481 A2.5,2.5 0 0 1 1281,1819.5481 L1281,1529.1381 A2.5,2.5 0 0 1 1283.5,1526.6381" fill="#FFF8E8" style="stroke:#000000;stroke-width:2;"/><line style="stroke:#000000;stroke-width:2;" x1="1281" x2="1397.2246" y1="1546.6069" y2="1546.6069"/><text fill="#000000" font-family="Verdana" font-size="12" font-weight="700" lengthAdjust="spacing" textLength="103.2246" x="1285" y="1539.7768">MongoDB Atlas</text><text fill="#000000" font-family="Verdana" font-size="12" font-style="italic" lengthAdjust="spacing" textLength="63.8789" x="1341.0605" y="1559.7455">&#171;physical&#187;</text></g><!--cluster env_anth--><g class="cluster" data-qualified-name="env_anth" data-source-line="63" id="ent0031"><path d="M389.5,833.1081 L456.5879,833.1081 A3.75,3.75 0 0 1 459.0879,835.6081 L466.0879,853.0769 L550.5,853.0769 A2.5,2.5 0 0 1 553,855.5769 L553,935.8881 A2.5,2.5 0 0 1 550.5,938.3881 L389.5,938.3881 A2.5,2.5 0 0 1 387,935.8881 L387,835.6081 A2.5,2.5 0 0 1 389.5,833.1081" fill="#F8F0FF" style="stroke:#000000;stroke-width:2;"/><line style="stroke:#000000;stroke-width:2;" x1="387" x2="466.0879" y1="853.0769" y2="853.0769"/><text fill="#000000" font-family="Verdana" font-size="12" font-weight="700" lengthAdjust="spacing" textLength="66.0879" x="391" y="846.2468">Anthropic</text><text fill="#000000" font-family="Verdana" font-size="12" font-style="italic" lengthAdjust="spacing" textLength="63.8789" x="442.0605" y="866.2155">&#171;physical&#187;</text></g><!--cluster env_oai--><g class="cluster" data-qualified-name="env_oai" data-source-line="67" id="ent0033"><path d="M579.5,827.2881 L629.7246,827.2881 A3.75,3.75 0 0 1 632.2246,829.7881 L639.2246,847.2569 L740.5,847.2569 A2.5,2.5 0 0 1 743,849.7569 L743,941.7081 A2.5,2.5 0 0 1 740.5,944.2081 L579.5,944.2081 A2.5,2.5 0 0 1 577,941.7081 L577,829.7881 A2.5,2.5 0 0 1 579.5,827.2881" fill="#FFF8F0" style="stroke:#000000;stroke-width:2;"/><line style="stroke:#000000;stroke-width:2;" x1="577" x2="639.2246" y1="847.2569" y2="847.2569"/><text fill="#000000" font-family="Verdana" font-size="12" font-weight="700" lengthAdjust="spacing" textLength="49.2246" x="581" y="840.4268">OpenAI</text><text fill="#000000" font-family="Verdana" font-size="12" font-style="italic" lengthAdjust="spacing" textLength="63.8789" x="632.0605" y="860.3955">&#171;physical&#187;</text></g><!--entity cf_pub--><g class="entity" data-qualified-name="env_cf.cf_pub" data-source-line="19" id="ent0004"><rect fill="#F5F5F5" height="78.2031" rx="2.5" ry="2.5" style="stroke:#333333;stroke-width:1;" width="102.3486" x="174.83" y="457.3481"/><text fill="#000000" font-family="Verdana" font-size="10" lengthAdjust="spacing" textLength="75.9961" x="184.83" y="476.6304">Pages &#8212; Public</text><text fill="#000000" font-family="Verdana" font-size="10" lengthAdjust="spacing" textLength="71.543" x="184.83" y="488.271">chathealthy.ai</text><text fill="#000000" font-family="Verdana" font-size="10" lengthAdjust="spacing" textLength="43.374" x="184.83" y="499.9116">Free TLS</text><text fill="#000000" font-family="Verdana" font-size="10" lengthAdjust="spacing" textLength="82.3486" x="184.83" y="511.5522">DDoS protection</text><text fill="#000000" font-family="Verdana" font-size="10" lengthAdjust="spacing" textLength="75.6396" x="184.83" y="523.1929">Bot Fight Mode</text></g><!--entity cf_admin--><g class="entity" data-qualified-name="env_cf.cf_admin" data-source-line="20" id="ent0005"><rect fill="#F5F5F5" height="66.5625" rx="2.5" ry="2.5" style="stroke:#333333;stroke-width:1;" width="126.0547" x="311.97" y="463.1681"/><text fill="#000000" font-family="Verdana" font-size="10" lengthAdjust="spacing" textLength="78.2715" x="321.97" y="482.4504">Pages &#8212; Admin</text><text fill="#000000" font-family="Verdana" font-size="10" lengthAdjust="spacing" textLength="106.0547" x="321.97" y="494.091">admin.chathealthy.ai</text><text fill="#000000" font-family="Verdana" font-size="10" lengthAdjust="spacing" textLength="88.8428" x="321.97" y="505.7316">Cloudflare Access</text><text fill="#000000" font-family="Verdana" font-size="10" lengthAdjust="spacing" textLength="70.6738" x="321.97" y="517.3722">Authenticated</text></g><!--entity cf_dns--><g class="entity" data-qualified-name="env_cf.cf_dns" data-source-line="21" id="ent0006"><rect fill="#F5F5F5" height="54.9219" rx="2.5" ry="2.5" style="stroke:#333333;stroke-width:1;" width="107.7441" x="219.13" y="310.4181"/><text fill="#000000" font-family="Verdana" font-size="10" lengthAdjust="spacing" textLength="54.5313" x="229.13" y="329.7004">DNS + SSL</text><text fill="#000000" font-family="Verdana" font-size="10" lengthAdjust="spacing" textLength="73.7402" x="229.13" y="341.341">HSTS enforced</text><text fill="#000000" font-family="Verdana" font-size="10" lengthAdjust="spacing" textLength="87.7441" x="229.13" y="352.9816">TLS 1.2 minimum</text></g><!--entity hf_fc_svc--><g class="entity" data-qualified-name="env_hf.hf_fc.hf_fc_svc" data-source-line="26" id="ent0009"><rect fill="#F5F5F5" height="54.9219" rx="2.5" ry="2.5" style="stroke:#333333;stroke-width:1;" width="93.2715" x="179.36" y="686.5481"/><text fill="#000000" font-family="Verdana" font-size="10" lengthAdjust="spacing" textLength="73.2715" x="189.36" y="705.8304">dev / qa / prod</text><text fill="#000000" font-family="Verdana" font-size="10" lengthAdjust="spacing" textLength="49.126" x="189.36" y="717.471">port 7860</text><text fill="#000000" font-family="Verdana" font-size="10" lengthAdjust="spacing" textLength="35.3711" x="189.36" y="729.1116">Docker</text></g><!--entity hf_ec_svc--><g class="entity" data-qualified-name="env_hf.hf_ec.hf_ec_svc" data-source-line="29" id="ent0011"><rect fill="#F5F5F5" height="54.9219" rx="2.5" ry="2.5" style="stroke:#333333;stroke-width:1;" width="93.2715" x="79.36" y="873.2881"/><text fill="#000000" font-family="Verdana" font-size="10" lengthAdjust="spacing" textLength="73.2715" x="89.36" y="892.5704">dev / qa / prod</text><text fill="#000000" font-family="Verdana" font-size="10" lengthAdjust="spacing" textLength="49.126" x="89.36" y="904.211">port 7860</text><text fill="#000000" font-family="Verdana" font-size="10" lengthAdjust="spacing" textLength="35.3711" x="89.36" y="915.8516">Docker</text></g><!--entity hf_ss_svc--><g class="entity" data-qualified-name="env_hf.hf_ss.hf_ss_svc" data-source-line="32" id="ent0013"><rect fill="#F5F5F5" height="89.8438" rx="2.5" ry="2.5" style="stroke:#333333;stroke-width:1;" width="129.9609" x="66.02" y="1090.7481"/><text fill="#000000" font-family="Verdana" font-size="10" lengthAdjust="spacing" textLength="73.2715" x="76.02" y="1110.0304">dev / qa / prod</text><text fill="#000000" font-family="Verdana" font-size="10" lengthAdjust="spacing" textLength="49.126" x="76.02" y="1121.671">port 7860</text><text fill="#000000" font-family="Verdana" font-size="10" lengthAdjust="spacing" textLength="35.3711" x="76.02" y="1133.3116">Docker</text><text fill="#000000" font-family="Verdana" font-size="10" lengthAdjust="spacing" textLength="76.0156" x="76.02" y="1144.9522">SecretManager</text><text fill="#000000" font-family="Verdana" font-size="10" lengthAdjust="spacing" textLength="71.1865" x="76.02" y="1156.5929">MongoUtilities</text><text fill="#000000" font-family="Verdana" font-size="10" lengthAdjust="spacing" textLength="109.9609" x="76.02" y="1168.2335">Safety, Consent, Lead</text></g><!--entity kv--><g class="entity" data-qualified-name="env_sec.kv" data-source-line="37" id="ent0015"><rect fill="#F5F5F5" height="132.7656" rx="2.5" ry="2.5" style="stroke:#333333;stroke-width:1;" width="173.5352" x="1075.23" y="1297.8781"/><text fill="#000000" font-family="Verdana" font-size="10" lengthAdjust="spacing" textLength="79.6826" x="1085.23" y="1317.1604">Azure Key Vault</text><text fill="#000000" font-family="Verdana" font-size="10" lengthAdjust="spacing" textLength="72.8613" x="1085.23" y="1328.801">FedRAMP High</text><text fill="#000000" font-family="Verdana" font-size="10" lengthAdjust="spacing" textLength="93.1934" x="1085.23" y="1340.4416">HIPAA BAA eligible</text><text fill="#000000" font-family="Verdana" font-size="10" lengthAdjust="spacing" textLength="92.6074" x="1085.23" y="1352.0822">FIPS 140-2 Level 2</text><text fill="#000000" font-family="Verdana" font-size="10" lengthAdjust="spacing" textLength="153.5352" x="1085.23" y="1363.7229">Soft-delete + purge protection</text><text fill="#000000" font-family="Verdana" font-size="10" lengthAdjust="spacing" textLength="111.9141" x="1085.23" y="1375.3635">Public access disabled</text><line style="stroke:#333333;stroke-width:1;" x1="1076.23" x2="1247.7652" y1="1377.7219" y2="1377.7219"/><text fill="#000000" font-family="Verdana" font-size="10" lengthAdjust="spacing" textLength="118.1055" x="1085.23" y="1391.0041">Auth: x509 (HF Spaces)</text><text fill="#000000" font-family="Verdana" font-size="10" lengthAdjust="spacing" textLength="127.2461" x="1085.23" y="1402.6447">Managed Identity (Azure)</text><text fill="#000000" font-family="Verdana" font-size="10" lengthAdjust="spacing" textLength="86.4893" x="1085.23" y="1414.2854">No bearer tokens</text></g><!--entity fw--><g class="entity" data-qualified-name="env_sec.vnet.fw" data-source-line="40" id="ent0017"><rect fill="#F5F5F5" height="78.2031" rx="2.5" ry="2.5" style="stroke:#333333;stroke-width:1;" width="144.6191" x="1622.69" y="1325.1581"/><text fill="#000000" font-family="Verdana" font-size="10" lengthAdjust="spacing" textLength="70.5273" x="1632.69" y="1344.4404">Azure Firewall</text><text fill="#000000" font-family="Verdana" font-size="10" lengthAdjust="spacing" textLength="79.7656" x="1632.69" y="1356.081">Deny-all default</text><text fill="#000000" font-family="Verdana" font-size="10" lengthAdjust="spacing" textLength="124.6191" x="1632.69" y="1367.7216">Allow: Mongo, Anthropic,</text><text fill="#000000" font-family="Verdana" font-size="10" lengthAdjust="spacing" textLength="112.4902" x="1632.69" y="1379.3622">OpenAI, HF, SparkPost</text><text fill="#000000" font-family="Verdana" font-size="10" lengthAdjust="spacing" textLength="66.46" x="1632.69" y="1391.0029">Audit logging</text></g><!--entity sub_pipe--><g class="entity" data-qualified-name="env_sec.vnet.sub_pipe" data-source-line="41" id="ent0018"><rect fill="#F5F5F5" height="43.2813" rx="2.5" ry="2.5" style="stroke:#333333;stroke-width:1;" width="130.4346" x="1418.78" y="1114.0281"/><text fill="#000000" font-family="Verdana" font-size="10" lengthAdjust="spacing" textLength="110.4346" x="1428.78" y="1133.3104">Subnet: DataPipelines</text><text fill="#000000" font-family="Verdana" font-size="10" lengthAdjust="spacing" textLength="72.959" x="1428.78" y="1144.951">NSG restricted</text></g><!--entity sub_biz--><g class="entity" data-qualified-name="env_sec.vnet.sub_biz" data-source-line="42" id="ent0019"><rect fill="#F5F5F5" height="43.2813" rx="2.5" ry="2.5" style="stroke:#333333;stroke-width:1;" width="133.6279" x="1769.19" y="1114.0281"/><text fill="#000000" font-family="Verdana" font-size="10" lengthAdjust="spacing" textLength="113.6279" x="1779.19" y="1133.3104">Subnet: BIZOperations</text><text fill="#000000" font-family="Verdana" font-size="10" lengthAdjust="spacing" textLength="72.959" x="1779.19" y="1144.951">NSG restricted</text></g><!--entity sub_pe--><g class="entity" data-qualified-name="env_sec.vnet.sub_pe" data-source-line="43" id="ent0020"><rect fill="#F5F5F5" height="31.6406" rx="2.5" ry="2.5" style="stroke:#333333;stroke-width:1;" width="149.9268" x="1584.04" y="1119.8481"/><text fill="#000000" font-family="Verdana" font-size="10" lengthAdjust="spacing" textLength="129.9268" x="1594.04" y="1139.1304">Subnet: Private Endpoints</text></g><!--entity pe_kv--><g class="entity" data-qualified-name="env_sec.vnet.pe_kv" data-source-line="44" id="ent0021"><rect fill="#F5F5F5" height="43.2813" rx="2.5" ry="2.5" style="stroke:#333333;stroke-width:1;" width="102.7246" x="1280.64" y="1114.0281"/><text fill="#000000" font-family="Verdana" font-size="10" lengthAdjust="spacing" textLength="82.7246" x="1290.64" y="1133.3104">Private Endpoint</text><text fill="#000000" font-family="Verdana" font-size="10" lengthAdjust="spacing" textLength="59.3701" x="1290.64" y="1144.951">&#8594; Key Vault</text></g><!--entity pe_mongo--><g class="entity" data-qualified-name="env_sec.vnet.pe_mongo" data-source-line="45" id="ent0022"><rect fill="#F5F5F5" height="54.9219" rx="2.5" ry="2.5" style="stroke:#333333;stroke-width:1;" width="125.0586" x="1320.47" y="1336.7981"/><text fill="#000000" font-family="Verdana" font-size="10" lengthAdjust="spacing" textLength="82.7246" x="1330.47" y="1356.0804">Private Endpoint</text><text fill="#000000" font-family="Verdana" font-size="10" lengthAdjust="spacing" textLength="87.7246" x="1330.47" y="1367.721">&#8594; MongoDB Atlas</text><text fill="#000000" font-family="Verdana" font-size="10" lengthAdjust="spacing" textLength="105.0586" x="1330.47" y="1379.3616">(frontend + pipeline)</text></g><!--entity az_func--><g class="entity" data-qualified-name="env_pipe.az_func" data-source-line="50" id="ent0024"><rect fill="#F5F5F5" height="66.5625" rx="2.5" ry="2.5" style="stroke:#333333;stroke-width:1;" width="111.0254" x="891.49" y="867.4681"/><text fill="#000000" font-family="Verdana" font-size="10" lengthAdjust="spacing" textLength="65.7959" x="901.49" y="886.7504">Function App</text><text fill="#000000" font-family="Verdana" font-size="10" lengthAdjust="spacing" textLength="91.0254" x="901.49" y="898.391">Durable Functions</text><text fill="#000000" font-family="Verdana" font-size="10" lengthAdjust="spacing" textLength="79.7705" x="901.49" y="910.0316">VNet integrated</text><text fill="#000000" font-family="Verdana" font-size="10" lengthAdjust="spacing" textLength="87.5732" x="901.49" y="921.6722">Managed Identity</text></g><!--entity az_blob--><g class="entity" data-qualified-name="env_pipe.az_blob" data-source-line="51" id="ent0025"><rect fill="#F5F5F5" height="43.2813" rx="2.5" ry="2.5" style="stroke:#333333;stroke-width:1;" width="84.4092" x="904.8" y="1114.0281"/><text fill="#000000" font-family="Verdana" font-size="10" lengthAdjust="spacing" textLength="64.4092" x="914.8" y="1133.3104">Blob Storage</text><text fill="#000000" font-family="Verdana" font-size="10" lengthAdjust="spacing" textLength="60.2686" x="914.8" y="1144.951">Source data</text></g><!--entity az_biz--><g class="entity" data-qualified-name="env_biz.az_biz" data-source-line="55" id="ent0027"><rect fill="#F5F5F5" height="54.9219" rx="2.5" ry="2.5" style="stroke:#333333;stroke-width:1;" width="123.291" x="1469.35" y="873.2881"/><text fill="#000000" font-family="Verdana" font-size="10" lengthAdjust="spacing" textLength="103.291" x="1479.35" y="892.5704">BizOps Function App</text><text fill="#000000" font-family="Verdana" font-size="10" lengthAdjust="spacing" textLength="79.7705" x="1479.35" y="904.211">VNet integrated</text><text fill="#000000" font-family="Verdana" font-size="10" lengthAdjust="spacing" textLength="87.5732" x="1479.35" y="915.8516">Managed Identity</text></g><!--entity mongo_fe--><g class="entity" data-qualified-name="env_mongo.mongo_fe" data-source-line="59" id="ent0029"><rect fill="#F5F5F5" height="78.2031" rx="2.5" ry="2.5" style="stroke:#333333;stroke-width:1;" width="116.04" x="1296.98" y="1727.8481"/><text fill="#000000" font-family="Verdana" font-size="10" lengthAdjust="spacing" textLength="83.75" x="1306.98" y="1747.1304">Frontend Cluster</text><text fill="#000000" font-family="Verdana" font-size="10" lengthAdjust="spacing" textLength="22.4561" x="1306.98" y="1758.771">24/7</text><text fill="#000000" font-family="Verdana" font-size="10" lengthAdjust="spacing" textLength="56.1963" x="1306.98" y="1770.4116">IP allowlist:</text><text fill="#000000" font-family="Verdana" font-size="10" lengthAdjust="spacing" textLength="96.04" x="1306.98" y="1782.0522">VNet PE + Skip's IP</text><text fill="#000000" font-family="Verdana" font-size="10" lengthAdjust="spacing" textLength="63.5449" x="1306.98" y="1793.6929">TLS required</text></g><!--entity mongo_pipe--><g class="entity" data-qualified-name="env_mongo.mongo_pipe" data-source-line="60" id="ent0030"><rect fill="#F5F5F5" height="78.2031" rx="2.5" ry="2.5" style="stroke:#333333;stroke-width:1;" width="116.04" x="1324.98" y="1572.6381"/><text fill="#000000" font-family="Verdana" font-size="10" lengthAdjust="spacing" textLength="78.0273" x="1334.98" y="1591.9204">Pipeline Cluster</text><text fill="#000000" font-family="Verdana" font-size="10" lengthAdjust="spacing" textLength="58.8721" x="1334.98" y="1603.561">On-demand</text><text fill="#000000" font-family="Verdana" font-size="10" lengthAdjust="spacing" textLength="56.1963" x="1334.98" y="1615.2016">IP allowlist:</text><text fill="#000000" font-family="Verdana" font-size="10" lengthAdjust="spacing" textLength="96.04" x="1334.98" y="1626.8422">VNet PE + Skip's IP</text><text fill="#000000" font-family="Verdana" font-size="10" lengthAdjust="spacing" textLength="91.0107" x="1334.98" y="1638.4829">ZERO admin state</text></g><!--entity api_claude--><g class="entity" data-qualified-name="env_anth.api_claude" data-source-line="64" id="ent0032"><rect fill="#F5F5F5" height="43.2813" rx="2.5" ry="2.5" style="stroke:#333333;stroke-width:1;" width="134.5215" x="402.74" y="879.1081"/><text fill="#000000" font-family="Verdana" font-size="10" lengthAdjust="spacing" textLength="92.1191" x="412.74" y="898.3904">Claude Sonnet API</text><text fill="#000000" font-family="Verdana" font-size="10" lengthAdjust="spacing" textLength="114.5215" x="412.74" y="910.031">API key from Key Vault</text></g><!--entity api_oai--><g class="entity" data-qualified-name="env_oai.api_oai" data-source-line="68" id="ent0034"><rect fill="#F5F5F5" height="54.9219" rx="2.5" ry="2.5" style="stroke:#333333;stroke-width:1;" width="134.5215" x="592.74" y="873.2881"/><text fill="#000000" font-family="Verdana" font-size="10" lengthAdjust="spacing" textLength="61.9287" x="602.74" y="892.5704">Embeddings</text><text fill="#000000" font-family="Verdana" font-size="10" lengthAdjust="spacing" textLength="90.8887" x="602.74" y="904.211">+ Safety classifier</text><text fill="#000000" font-family="Verdana" font-size="10" lengthAdjust="spacing" textLength="114.5215" x="602.74" y="915.8516">API key from Key Vault</text></g><!--entity user--><g class="entity" data-qualified-name="user" data-source-line="16" id="ent0002"><ellipse cx="273.0038" cy="116.8281" fill="#FFFFFF" rx="8" ry="8" style="stroke:#000000;stroke-width:1;"/><path d="M273.0038,124.8281 L273.0038,151.8281 M260.0038,132.8281 L286.0038,132.8281 M273.0038,151.8281 L260.0038,166.8281 M273.0038,151.8281 L286.0038,166.8281" fill="none" style="stroke:#000000;stroke-width:1;"/><text fill="#000000" font-family="Verdana" font-size="14" lengthAdjust="spacing" textLength="71.3877" x="237.31" y="181.8232">Consumer</text><text fill="#000000" font-family="Verdana" font-size="14" lengthAdjust="spacing" textLength="67.9629" x="237.31" y="198.1201">(Browser)</text></g><g class="entity" data-qualified-name="GMN60" data-source-line="127" id="ent0061"><path d="M1983.49,1283.5981 L1983.49,1444.9263 L2440.5169,1444.9263 L2440.5169,1293.5981 L2430.5169,1283.5981 L1983.49,1283.5981" fill="#FFFFFF" style="stroke:#000000;stroke-width:1;"/><path d="M2430.5169,1283.5981 L2430.5169,1293.5981 L2440.5169,1293.5981 L2430.5169,1283.5981" fill="#FFFFFF" style="stroke:#000000;stroke-width:1;"/><text fill="#000000" font-family="Verdana" font-size="13" font-weight="700" lengthAdjust="spacing" textLength="198.8911" x="1989.49" y="1300.665">Deployed security posture:</text><text fill="#000000" font-family="Verdana" font-size="13" lengthAdjust="spacing" textLength="399.3628" x="1989.49" y="1315.7978">- Zero bearer tokens &#8212; all auth via x509 or Managed Identity</text><text fill="#000000" font-family="Verdana" font-size="13" lengthAdjust="spacing" textLength="323.248" x="1989.49" y="1330.9306">- Azure Firewall: deny-all default, explicit allowlist</text><text fill="#000000" font-family="Verdana" font-size="13" lengthAdjust="spacing" textLength="436.0269" x="1989.49" y="1346.0635">- Private endpoints: Key Vault + MongoDB never on public internet</text><text fill="#000000" font-family="Verdana" font-size="13" lengthAdjust="spacing" textLength="308.5342" x="1989.49" y="1361.1963">- NSG per subnet: only required ports/protocols</text><text fill="#000000" font-family="Verdana" font-size="13" lengthAdjust="spacing" textLength="309.1689" x="1989.49" y="1376.3291">- MongoDB IP allowlist: VNet PE + Skip's IP only</text><text fill="#000000" font-family="Verdana" font-size="13" lengthAdjust="spacing" textLength="302.8276" x="1989.49" y="1391.4619">- All inter-service: mTLS (certs from Key Vault)</text><text fill="#000000" font-family="Verdana" font-size="13" lengthAdjust="spacing" textLength="343.6558" x="1989.49" y="1406.5947">- FedRAMP High, HIPAA BAA, FIPS 140-2 L2, HITRUST</text><text fill="#000000" font-family="Verdana" font-size="13" lengthAdjust="spacing" textLength="314.6152" x="1989.49" y="1421.7275">- NIST 800-171 compliant (CUI protection ready)</text><text fill="#000000" font-family="Verdana" font-size="13" lengthAdjust="spacing" textLength="407.1641" x="1989.49" y="1436.8603">- TRICARE-ready: CUI-level protection for military beneficiaries</text></g><!--link user to cf_dns--><g class="link" data-entity-1="ent0002" data-entity-2="ent0006" data-link-type="dependency" data-source-line="73" id="lnk35"><path d="M273,201.8381 C273,236.1281 273,275.7081 273,304.1681" fill="none" id="user-to-cf_dns" style="stroke:#000000;stroke-width:1;"/><polygon fill="#000000" points="273,310.1681,277,301.1681,273,305.1681,269,301.1681,273,310.1681" style="stroke:#000000;stroke-width:1;"/><text fill="#000000" font-family="Verdana" font-size="13" lengthAdjust="spacing" textLength="41.7485" x="274" y="244.485">HTTPS</text></g><!--link cf_dns to cf_pub--><g class="link" data-entity-1="ent0006" data-entity-2="ent0004" data-link-type="dependency" data-source-line="74" id="lnk36"><path d="M264.92,365.7981 C257.39,390.8881 247.7946,422.8413 239.3046,451.1313" fill="none" id="cf_dns-to-cf_pub" style="stroke:#000000;stroke-width:1;"/><polygon fill="#000000" points="237.58,456.8781,243.9982,449.4077,239.0172,452.0891,236.3358,447.1082,237.58,456.8781" style="stroke:#000000;stroke-width:1;"/></g><!--link cf_dns to cf_admin--><g class="link" data-entity-1="ent0006" data-entity-2="ent0005" data-link-type="dependency" data-source-line="75" id="lnk37"><path d="M290.53,365.7981 C308.08,392.7281 331.8048,429.1509 350.5348,457.9009" fill="none" id="cf_dns-to-cf_admin" style="stroke:#000000;stroke-width:1;"/><polygon fill="#000000" points="353.81,462.9281,352.2488,453.2038,351.0807,458.7387,345.5458,457.5707,353.81,462.9281" style="stroke:#000000;stroke-width:1;"/><text fill="#000000" font-family="Verdana" font-size="13" lengthAdjust="spacing" textLength="115.4956" x="331" y="408.415">Cloudflare Access</text><text fill="#000000" font-family="Verdana" font-size="13" lengthAdjust="spacing" textLength="101.0928" x="338.2014" y="423.5478">(authenticated)</text></g><!--link cf_pub to hf_fc_svc--><g class="link" data-entity-1="ent0004" data-entity-2="ent0009" data-link-type="dependency" data-source-line="76" id="lnk38"><path d="M226,535.9881 C226,579.3381 226,642.6181 226,680.3681" fill="none" id="cf_pub-to-hf_fc_svc" style="stroke:#000000;stroke-width:1;"/><polygon fill="#000000" points="226,686.3681,230,677.3681,226,681.3681,222,677.3681,226,686.3681" style="stroke:#000000;stroke-width:1;"/><text fill="#000000" font-family="Verdana" font-size="13" lengthAdjust="spacing" textLength="42.1611" x="227" y="580.615">iframe</text></g><!--link hf_fc_svc to hf_ec_svc--><g class="link" data-entity-1="ent0009" data-entity-2="ent0011" data-link-type="dependency" data-source-line="80" id="lnk39"><path d="M202.44,741.8881 C194.71,751.4681 186.46,762.5881 180,773.4681 C160.66,806.0781 146.5442,841.2535 137.0842,867.5035" fill="none" id="hf_fc_svc-to-hf_ec_svc" style="stroke:#FF0000;stroke-width:1;"/><polygon fill="#FF0000" points="135.05,873.1481,141.8644,866.0373,136.7452,868.4443,134.3382,863.325,135.05,873.1481" style="stroke:#FF0000;stroke-width:1;"/><text fill="#000000" font-family="Verdana" font-size="13" lengthAdjust="spacing" textLength="52.0063" x="181" y="794.035">&#171;mTLS&#187;</text></g><!--link hf_fc_svc to hf_ss_svc--><g class="link" data-entity-1="ent0009" data-entity-2="ent0013" data-link-type="dependency" data-source-line="81" id="lnk40"><path d="M233.22,741.9181 C237.15,759.8981 240.7,784.0981 238,805.4681 C227.02,892.2281 216.84,913.1281 189,996.0281 C178.2,1028.1881 165.8551,1057.9545 153.9051,1084.8645" fill="none" id="hf_fc_svc-to-hf_ss_svc" style="stroke:#FF0000;stroke-width:1;"/><polygon fill="#FF0000" points="151.47,1090.3481,158.7784,1083.7461,153.4993,1085.7784,151.4669,1080.4993,151.47,1090.3481" style="stroke:#FF0000;stroke-width:1;"/><text fill="#000000" font-family="Verdana" font-size="13" lengthAdjust="spacing" textLength="52.0063" x="237" y="905.315">&#171;mTLS&#187;</text></g><!--link hf_ec_svc to hf_ss_svc--><g class="link" data-entity-1="ent0011" data-entity-2="ent0013" data-link-type="dependency" data-source-line="82" id="lnk41"><path d="M126.57,928.4681 C127.42,968.0181 128.8907,1036.6195 129.9207,1084.4095" fill="none" id="hf_ec_svc-to-hf_ss_svc" style="stroke:#FF0000;stroke-width:1;"/><polygon fill="#FF0000" points="130.05,1090.4081,133.8551,1081.324,129.9423,1085.4093,125.857,1081.4964,130.05,1090.4081" style="stroke:#FF0000;stroke-width:1;"/><text fill="#000000" font-family="Verdana" font-size="13" lengthAdjust="spacing" textLength="52.0063" x="128" y="984.595">&#171;mTLS&#187;</text></g><!--link hf_fc_svc to kv--><g class="link" data-entity-1="ent0009" data-entity-2="ent0015" data-link-type="dependency" data-source-line="86" id="lnk42"><path d="M246.31,741.8581 C260.99,761.4781 281.12,788.8381 298,813.4681 C339.42,873.8981 333.79,901.8581 387,952.2081 C596.76,1150.7281 915.3283,1278.7018 1069.3583,1332.7418" fill="none" id="hf_fc_svc-to-kv" style="stroke:#FF0000;stroke-width:2;"/><polygon fill="#FF0000" points="1075.02,1334.7281,1067.8517,1327.9742,1070.3019,1333.0728,1065.2033,1335.5231,1075.02,1334.7281" style="stroke:#FF0000;stroke-width:2;"/><text fill="#000000" font-family="Verdana" font-size="13" lengthAdjust="spacing" textLength="78.1333" x="435" y="984.595">&#171;x509 cert&#187;</text></g><!--link hf_ec_svc to kv--><g class="link" data-entity-1="ent0011" data-entity-2="ent0015" data-link-type="dependency" data-source-line="87" id="lnk43"><path d="M156.25,928.4481 C167.24,938.9481 179.33,951.4881 189,964.0281 C266.21,1064.2381 202.46,1141.2781 294,1228.5981 C404.97,1334.4381 871.3418,1356.9408 1068.7518,1361.7908" fill="none" id="hf_ec_svc-to-kv" style="stroke:#FF0000;stroke-width:2;"/><polygon fill="#FF0000" points="1074.75,1361.9381,1065.851,1357.7183,1069.7515,1361.8153,1065.6545,1365.7159,1074.75,1361.9381" style="stroke:#FF0000;stroke-width:2;"/><text fill="#000000" font-family="Verdana" font-size="13" lengthAdjust="spacing" textLength="78.1333" x="295" y="1140.235">&#171;x509 cert&#187;</text></g><!--link hf_ss_svc to kv--><g class="link" data-entity-1="ent0013" data-entity-2="ent0015" data-link-type="dependency" data-source-line="88" id="lnk44"><path d="M130.72,1181.0781 C133.06,1206.1081 140.5,1235.8181 161,1253.5981 C229.48,1312.9781 837.867,1347.8275 1068.797,1359.0275" fill="none" id="hf_ss_svc-to-kv" style="stroke:#FF0000;stroke-width:2;"/><polygon fill="#FF0000" points="1074.79,1359.3181,1065.9943,1354.8868,1069.7959,1359.0759,1065.6068,1362.8774,1074.79,1359.3181" style="stroke:#FF0000;stroke-width:2;"/><text fill="#000000" font-family="Verdana" font-size="13" lengthAdjust="spacing" textLength="78.1333" x="162" y="1249.665">&#171;x509 cert&#187;</text></g><!--link hf_ss_svc to mongo_fe--><g class="link" data-entity-1="ent0013" data-entity-2="ent0029" data-link-type="dependency" data-source-line="92" id="lnk45"><path d="M123.97,1180.9681 C122.63,1204.5881 125.12,1232.9481 140,1253.5981 C429.2,1655.0381 1090.0938,1743.2946 1290.8238,1761.2146" fill="none" id="hf_ss_svc-to-mongo_fe" style="stroke:#FFA500;stroke-width:1;"/><polygon fill="#FFA500" points="1296.8,1761.7481,1288.1913,1756.9637,1291.8198,1761.3035,1287.48,1764.932,1296.8,1761.7481" style="stroke:#FFA500;stroke-width:1;"/><text fill="#000000" font-family="Verdana" font-size="13" lengthAdjust="spacing" textLength="23.4355" x="452.7449" y="1491.705">TLS</text><text fill="#000000" font-family="Verdana" font-size="13" lengthAdjust="spacing" textLength="84.9253" x="422" y="1506.8378">IP allowlisted</text></g><!--link hf_fc_svc to api_claude--><g class="link" data-entity-1="ent0009" data-entity-2="ent0032" data-link-type="dependency" data-source-line="96" id="lnk46"><path d="M273.02,726.0181 C304.43,735.0381 345.44,750.1781 376,773.4681 C414.26,802.6281 441.467,846.1107 456.537,873.7407" fill="none" id="hf_fc_svc-to-api_claude" style="stroke:#800080;stroke-width:1;"/><polygon fill="#800080" points="459.41,879.0081,458.6122,869.1916,457.0159,874.6186,451.5889,873.0223,459.41,879.0081" style="stroke:#800080;stroke-width:1;"/><text fill="#000000" font-family="Verdana" font-size="13" lengthAdjust="spacing" textLength="47.9185" x="432.4543" y="786.535">API key</text><text fill="#000000" font-family="Verdana" font-size="13" lengthAdjust="spacing" textLength="96.8271" x="408" y="801.6678">from Key Vault</text></g><!--link hf_fc_svc to api_oai--><g class="link" data-entity-1="ent0009" data-entity-2="ent0034" data-link-type="dependency" data-source-line="97" id="lnk47"><path d="M273.05,717.3381 C331.9,721.8381 434.45,735.0081 513,773.4681 C563.16,798.0281 606.0215,839.419 632.8115,868.589" fill="none" id="hf_fc_svc-to-api_oai" style="stroke:#800080;stroke-width:1;"/><polygon fill="#800080" points="636.87,873.0081,633.7283,863.6738,633.4879,869.3256,627.8361,869.0852,636.87,873.0081" style="stroke:#800080;stroke-width:1;"/><text fill="#000000" font-family="Verdana" font-size="13" lengthAdjust="spacing" textLength="47.9185" x="587.4543" y="786.535">API key</text><text fill="#000000" font-family="Verdana" font-size="13" lengthAdjust="spacing" textLength="96.8271" x="563" y="801.6678">from Key Vault</text></g><!--link az_func to sub_pipe--><g class="link" data-entity-1="ent0024" data-entity-2="ent0018" data-link-type="dependency" data-source-line="101" id="lnk48"><path d="M1002.68,904.8881 C1127.56,912.4581 1421.68,933.3481 1454,964.0281 C1495.23,1003.1781 1492.6774,1071.5749 1488.1274,1107.8149" fill="none" id="az_func-to-sub_pipe" style="stroke:#000000;stroke-width:1;"/><polygon fill="#000000" points="1487.38,1113.7681,1492.47,1105.3365,1488.0029,1108.8071,1484.5323,1104.3399,1487.38,1113.7681" style="stroke:#000000;stroke-width:1;"/><text fill="#000000" font-family="Verdana" font-size="13" lengthAdjust="spacing" textLength="103.7017" x="1475" y="984.595">VNet integrated</text></g><!--link az_biz to sub_biz--><g class="link" data-entity-1="ent0027" data-entity-2="ent0019" data-link-type="dependency" data-source-line="102" id="lnk49"><path d="M1592.71,920.0181 C1639.97,936.3181 1704.71,963.8681 1751,1004.0281 C1787.18,1035.4181 1811.4294,1080.4179 1824.5194,1108.5579" fill="none" id="az_biz-to-sub_biz" style="stroke:#000000;stroke-width:1;"/><polygon fill="#000000" points="1827.05,1113.9981,1826.8808,1104.1507,1824.9411,1109.4646,1819.6272,1107.5249,1827.05,1113.9981" style="stroke:#000000;stroke-width:1;"/><text fill="#000000" font-family="Verdana" font-size="13" lengthAdjust="spacing" textLength="103.7017" x="1741" y="984.595">VNet integrated</text></g><!--link sub_pipe to fw--><g class="link" data-entity-1="ent0018" data-entity-2="ent0017" data-link-type="dependency" data-source-line="103" id="lnk50"><path d="M1502.64,1157.6181 C1519.36,1176.3381 1544.64,1204.4581 1567,1228.5981 C1597.36,1261.3681 1628.1871,1293.7676 1653.8971,1320.5776" fill="none" id="sub_pipe-to-fw" style="stroke:#000000;stroke-width:1;"/><polygon fill="#000000" points="1658.05,1324.9081,1654.7077,1315.6437,1654.5893,1321.2993,1648.9337,1321.1809,1658.05,1324.9081" style="stroke:#000000;stroke-width:1;"/><text fill="#000000" font-family="Verdana" font-size="13" lengthAdjust="spacing" textLength="64.5049" x="1588" y="1249.665">Outbound</text></g><!--link sub_biz to fw--><g class="link" data-entity-1="ent0019" data-entity-2="ent0017" data-link-type="dependency" data-source-line="104" id="lnk51"><path d="M1822.99,1157.5881 C1799.33,1195.5981 1752.1198,1271.4638 1722.1098,1319.6938" fill="none" id="sub_biz-to-fw" style="stroke:#000000;stroke-width:1;"/><polygon fill="#000000" points="1718.94,1324.7881,1727.091,1319.2599,1721.5815,1320.5429,1720.2985,1315.0334,1718.94,1324.7881" style="stroke:#000000;stroke-width:1;"/><text fill="#000000" font-family="Verdana" font-size="13" lengthAdjust="spacing" textLength="64.5049" x="1770" y="1249.665">Outbound</text></g><!--link az_func to pe_kv--><g class="link" data-entity-1="ent0024" data-entity-2="ent0021" data-link-type="dependency" data-source-line="108" id="lnk52"><path d="M1000.94,934.3881 C1081.23,982.9581 1224.8162,1069.8326 1292.1462,1110.5626" fill="none" id="az_func-to-pe_kv" style="stroke:#006400;stroke-width:2;"/><polygon fill="#006400" points="1297.28,1113.6681,1291.6497,1105.5873,1293.0019,1111.0802,1287.509,1112.4323,1297.28,1113.6681" style="stroke:#006400;stroke-width:2;"/><text fill="#000000" font-family="Verdana" font-size="13" lengthAdjust="spacing" textLength="129.7524" x="1094" y="977.095">&#171;Managed Identity&#187;</text><text fill="#000000" font-family="Verdana" font-size="13" lengthAdjust="spacing" textLength="106.374" x="1105.6892" y="992.2278">Zero credentials</text></g><!--link az_biz to pe_kv--><g class="link" data-entity-1="ent0027" data-entity-2="ent0021" data-link-type="dependency" data-source-line="109" id="lnk53"><path d="M1469.04,911.5781 C1413.17,921.8481 1337.1,939.8481 1319,964.0281 C1285.8,1008.3981 1305.5769,1073.1436 1320.0069,1108.0336" fill="none" id="az_biz-to-pe_kv" style="stroke:#006400;stroke-width:2;"/><polygon fill="#006400" points="1322.3,1113.5781,1322.5566,1103.7326,1320.3891,1108.9577,1315.164,1106.7901,1322.3,1113.5781" style="stroke:#006400;stroke-width:2;"/><text fill="#000000" font-family="Verdana" font-size="13" lengthAdjust="spacing" textLength="129.7524" x="1320" y="984.595">&#171;Managed Identity&#187;</text></g><!--link pe_kv to kv--><g class="link" data-entity-1="ent0021" data-entity-2="ent0015" data-link-type="dependency" data-source-line="110" id="lnk54"><path d="M1316.31,1157.5881 C1292.64,1189.1381 1250.3708,1245.4687 1214.7708,1292.9187" fill="none" id="pe_kv-to-kv" style="stroke:#000000;stroke-width:1;"/><polygon fill="#000000" points="1211.17,1297.7181,1219.7708,1292.9196,1214.1707,1293.7186,1213.3716,1288.1185,1211.17,1297.7181" style="stroke:#000000;stroke-width:1;"/></g><!--link sub_pipe to pe_mongo--><g class="link" data-entity-1="ent0018" data-entity-2="ent0022" data-link-type="dependency" data-source-line="114" id="lnk55"><path d="M1474.68,1157.5881 C1456.27,1198.8881 1417.7024,1285.3977 1397.3624,1331.0377" fill="none" id="sub_pipe-to-pe_mongo" style="stroke:#000000;stroke-width:1;"/><polygon fill="#000000" points="1394.92,1336.5181,1402.2372,1329.9258,1396.9553,1331.9511,1394.93,1326.6693,1394.92,1336.5181" style="stroke:#000000;stroke-width:1;"/></g><!--link pe_mongo to mongo_fe--><g class="link" data-entity-1="ent0022" data-entity-2="ent0029" data-link-type="dependency" data-source-line="115" id="lnk56"><path d="M1370.59,1392.0081 C1358.95,1414.9581 1339.79,1447.8381 1316,1470.6381 C1285.24,1500.1381 1254.29,1481.7281 1233,1518.6381 C1203.64,1569.5381 1209.73,1596.8981 1233,1650.8481 C1246.21,1681.4581 1267.3221,1703.9609 1291.8121,1723.6309" fill="none" id="pe_mongo-to-mongo_fe" style="stroke:#FFA500;stroke-width:1;"/><polygon fill="#FFA500" points="1296.49,1727.3881,1291.9779,1718.6336,1292.5917,1724.2571,1286.9683,1724.8709,1296.49,1727.3881" style="stroke:#FFA500;stroke-width:1;"/><text fill="#000000" font-family="Verdana" font-size="13" lengthAdjust="spacing" textLength="72.6743" x="1234" y="1616.315">Private link</text></g><!--link pe_mongo to mongo_pipe--><g class="link" data-entity-1="ent0022" data-entity-2="ent0030" data-link-type="dependency" data-source-line="116" id="lnk57"><path d="M1383,1391.9981 C1383,1435.6181 1383,1516.2381 1383,1566.3981" fill="none" id="pe_mongo-to-mongo_pipe" style="stroke:#FFA500;stroke-width:1;"/><polygon fill="#FFA500" points="1383,1572.3981,1387,1563.3981,1383,1567.3981,1379,1563.3981,1383,1572.3981" style="stroke:#FFA500;stroke-width:1;"/><text fill="#000000" font-family="Verdana" font-size="13" lengthAdjust="spacing" textLength="72.6743" x="1384" y="1499.205">Private link</text></g><!--link az_func to az_blob--><g class="link" data-entity-1="ent0024" data-entity-2="ent0025" data-link-type="dependency" data-source-line="120" id="lnk58"><path d="M947,934.1381 C947,982.6381 947,1066.7981 947,1107.6181" fill="none" id="az_func-to-az_blob" style="stroke:#000000;stroke-width:1;"/><polygon fill="#000000" points="947,1113.6181,951,1104.6181,947,1108.6181,943,1104.6181,947,1113.6181" style="stroke:#000000;stroke-width:1;"/></g><!--link mongo_pipe to mongo_fe--><g class="link" data-entity-1="ent0030" data-entity-2="ent0029" data-link-type="dependency" data-source-line="124" id="lnk59"><path d="M1376.01,1651.0081 C1371.75,1674.3181 1367.3989,1698.1059 1363.1289,1721.4659" fill="none" id="mongo_pipe-to-mongo_fe" style="stroke:#808080;stroke-width:1;stroke-dasharray:7,7;"/><polygon fill="#808080" points="1362.05,1727.3681,1367.6031,1719.2341,1362.9491,1722.4496,1359.7335,1717.7956,1362.05,1727.3681" style="stroke:#808080;stroke-width:1;"/><text fill="#000000" font-family="Verdana" font-size="13" lengthAdjust="spacing" textLength="107.688" x="1370" y="1693.915">CopyToFrontEnd</text></g><!--link env_sec to GMN60--><g class="link" data-entity-1="ent0014" data-entity-2="ent0061" data-link-type="association" data-source-line="127" id="lnk62"><path d="M1959.3401,1143.9137 C1959.4553,1144.0138 1959.5717,1144.1147 1959.6891,1144.2167 C1960.1587,1144.6244 1960.6458,1145.0472 1961.1498,1145.4848 C1963.1659,1147.235 1965.4536,1149.2211 1967.9867,1151.4202 C1978.1191,1160.2166 1992.1769,1172.4212 2008.4763,1186.5719 C2041.075,1214.8731 2082.64,1250.9581 2119.7,1283.1281" fill="none" id="env_sec-GMN60" style="stroke:#000000;stroke-width:1;stroke-dasharray:7,7;"/></g><?plantuml-src fLXRSzeu57xdLvob3oKjJWdRIvRfP8OGs33RDanC-z3IOOGjWmOXkP9CIdOwqwVz0JlzXVqbUoHZOnlIPdTpTUHpFz-vAB-O1LrHY3bXecQOuHHw2s8kAU5ciJac3Bv__GONDEPoGqFmQP0ePZRGLS626HgOHD692EaQdi0dWZzY9SE9QBVQpxtMKw_rl5RJIoPYeiWA0hcAfQ32-6Q3YXIo4p7dj40o8y5ohcGYmfxaKi6DrN981FnP0pYlK3yOFBEVzerK8LNRqr_T1vuE9EfcjnHEMhKl1QanoY5pwcJkQDgvdF621Kj1jOOsyjL8O51ilIU5JbPKJKJZNCaRJTLH7OY619zgjKnclSTb4aQSAEhUKh6U1X6yV1alDfe5X9-TERi7WsTE_yx33oFarou1esJ6MJ0H0UPcaUTc8WQAKXY_yYVYuaBwDlWs9qoAYJYN1WPilZ3mMeRqerKTHDCucTsbenkk6F8H--kugcZd17I302Cn4Tq4AOH15mmDC_cEkwpXueqFZy7tNqt4fJ_sCG2HL055bA3XS7BS1cHXgsILoGY5jb7E0tYPpETCp0Sas4LmiHV15aQmvIAOCmuO0iEQxECHrOvv4KsZm96LZDn3S2oLWHUdpriOMXaigVgOSq_rEa3-BqLL_JNX2GRYW3hwlzJHW-hy1UgnvQZM35LLD29E_uF6YS3gLjIy9W9ru9-lfPZBjuPnPXZ5XFiaecRJ18jxbDc4LvI47tETkPt5t7LliK4uU1NQIjP5ycngZ54bdOF-QV-qMX2fj3_e1jwHX1l4Fmslkwz7S8b0HtWDHzqkdECtvMpEPXnRqs0uGf0zRNbjD7TDERJH4HaPBwIS6eh8Z1E5bXPB9wqs80xe439DK1I6pFEy5FOT-FoizHiqBWVRo1zXj5pOGXY6jYYmHJQSjVZcZOGPnNmfC799XNOXMwvhnOIcdhrxGuqBobfGiv_3b6Z05BqXd6FUgDXu-0GXZT9uT3cNDnrmcMj2LvY5aZ4BcXDn5LFH7JRXSj2qDglbI6hBa8JC09UkmfnXqKrLhP_Cq9mEN113HYp6s0eBXpV-xzZ2jL4io1g0JcRJ62dkad0-V8zsA6B3VBU46RkzIy18iJLM6VH564icZDwftLDQfPs8xt_zlGEFuupf51DnBqONqujpw1fEqFP6f71GK15Q16s3SfJ9N5dQ-zL2AQXvGLY9UnM1BQvLhOX18XneeHl728X4MQX2TefsMaW1Ea7dolRfVPmwcydjD4AUiknpBcVWuwX3Ubiq2NPj2D7UZ6M613_ti9Jqt4DCyY47zsRWERkzYZMK_RotKnPAHGDBISnjSUdQjoPhGDRb6T4KevtblCSJRMoFR3zzyc8YXYCWjl8uqwQpDM_KjrDloUA76eQZTDWf-Yd1wasXxhHE8rhIa45Xf-5AOAjQ4H7UJytx_lKLk2aCsc1m2gfSPPRIbVM7F184Jwg1EBMZjPgM7YT9Y9DE2jkfkgCXjfBH49PONLWOgqgPaPXD0yTHqf_sf5ovn6rpFmdxcE-lPZGCiLyXlD5tDvK0nMlD8cP3zXDBK8yruo5y__OLlo3Ruo32s6uFQpMxnO7ddMqt4kZW8Z8UZ_nwRNkmVMStgl996lrESVFBbwO6AMvDHquOId2i-N9XULc4Yocj5yp4OMCXhpoTJdreh11JHxd1EtRlmmCBibGapKM-V6aPpixgTv6cCtoFbDwJj6HggTT2myxBkqrjpYHtafVhLAGRhm5Lvf09FwNU6dSVwZsRimxHM3DIS210e8ETL8YwaXyxNTWdnPnQJLbbMtrkEIyMBWqFQEqERGtfgjOjaFKTaSFD9UPEuwx0hCujsqIK2w3-8svRV3zYtPcytKAo4UFiTwqeit4xJ1ociut0ogvqxNejRT0vdNq-H9RBi8JHZQMvIipCNllIbvcGwhkgpHLCLeV6qRu77nw4k2hDyPObSXovdI65KbN2sHasOAeau1xjZWZNEpV_jR1wBNtjEVGUT2U7QtLfsJbJ2b--d6GFToCtauZZQ5d_8NsMu3B78NFTId489zasiMFA9o5kvYlfPd_6MD1w_E41mcJJ38bUO7CwBhlGa_5cBDtKxZj025poOIQDGN3BABjxu7Xvz2Z_7uVE_iSHuuQCXdSUFK823rnYIukystJi_csREjZITRr5AgZcqWaeh-yTtDhBwtiJwESOBnwuaEVTmZ5cSQNPrjifmFXnZW61zni56ASulR-uQO7ZsScmkpPkORRGt2Oj1T_a-mZOow1-Okz0Cf1SEuvCR6dhW0DBXvELUeZEb6PK1-nmW8PjjxeoZuySI_46XxUJx0RNXEB5hMtVZA_V-kFKbw4_XjDMopjvSU8M0yvmSO56x-smS8z3xqYuIRMChuUzxdNVSqSTG4AFkzjWWJp2lAtiPPUe3UPPq0XJGHHUVMjsvRFG-GS0?></g></svg>